<?xml version="1.0" encoding="UTF-8" standalone="no"?>
<svg
   width="91pt"
   height="91pt"
   viewBox="0 0 91 91"
   version="1.1"
   id="svg52"
   sodipodi:docname="logo-white2.svg"
   inkscape:version="1.2.2 (732a01da63, 2022-12-09)"
   xmlns:inkscape="http://www.inkscape.org/namespaces/inkscape"
   xmlns:sodipodi="http://sodipodi.sourceforge.net/DTD/sodipodi-0.dtd"
   xmlns="http://www.w3.org/2000/svg"
   xmlns:svg="http://www.w3.org/2000/svg">
  <defs
     id="defs56" />
  <sodipodi:namedview
     id="namedview54"
     pagecolor="#ffffff"
     bordercolor="#666666"
     borderopacity="1.0"
     inkscape:showpageshadow="2"
     inkscape:pageopacity="0.0"
     inkscape:pagecheckerboard="0"
     inkscape:deskcolor="#d1d1d1"
     inkscape:document-units="pt"
     showgrid="false"
     inkscape:zoom="4.4371421"
     inkscape:cx="185.02901"
     inkscape:cy="61.526089"
     inkscape:window-width="1920"
     inkscape:window-height="1027"
     inkscape:window-x="1592"
     inkscape:window-y="-8"
     inkscape:window-maximized="1"
     inkscape:current-layer="svg52" />
  <path
     fill="#009ddc"
     opacity="1"
     d="M 39.17,1.16 C 51.02,-0.58 63.47,2.64 72.96,9.95 90.33,22.66 95.78,48.49 85.16,67.19 79.02,78.56 67.78,87.15 55.07,89.72 43.13,92.37 30.15,89.8 20.1,82.84 9.24,75.44 1.87,63.07 0.8,49.94 -0.2,39.62 2.46,28.95 8.38,20.41 15.3,10.02 26.81,2.86 39.17,1.16 m -27.2,44.83 c -0.23,17.25 14.79,32.95 32.07,33.28 14.63,1 28.93,-8.98 33.44,-22.85 3.35,-9.6 1.85,-20.63 -3.77,-29.07 C 68.72,19.55 60.33,14.24 51.29,12.5 51.2,25.65 51.28,38.79 51.25,51.94 55.23,49 59.13,45.93 63.2,43.12 c 2.68,-1.89 6.89,-0.7 8.17,2.32 1.27,2.4 0.38,5.55 -1.8,7.1 -6.84,5.16 -13.75,10.24 -20.64,15.35 -1.97,1.61 -4.95,1.78 -6.99,0.2 -6.81,-5.2 -13.6,-10.43 -20.36,-15.69 -2.1,-1.53 -2.96,-4.53 -1.84,-6.91 1.32,-3.4 6.03,-4.37 8.78,-2.13 C 32.4,46.23 36.19,49.23 40,52.2 39.99,38.98 40.02,25.76 39.98,12.54 24.19,15.04 11.54,29.95 11.97,45.99 Z"
     id="path30" />
</svg>
